<mxfile host="app.diagrams.net" modified="2022-09-05T02:54:51.111Z" agent="5.0 (Windows NT 10.0; Win64; x64) AppleWebKit/537.36 (KHTML, like Gecko) Chrome/105.0.0.0 Safari/537.36" etag="zL2DHS_Kf2dn1u5raicP" version="20.2.8" type="github">
  <diagram id="XbavgsnFWZXn_3_bb3mC" name="第 1 页">
    <mxGraphModel dx="2788" dy="1744" grid="1" gridSize="10" guides="1" tooltips="1" connect="1" arrows="1" fold="1" page="0" pageScale="1" pageWidth="827" pageHeight="1169" math="0" shadow="0">
      <root>
        <mxCell id="0" />
        <mxCell id="1" parent="0" />
      </root>
    </mxGraphModel>
  </diagram>
</mxfile>
